<?xml version="1.0" encoding="UTF-8"?>
<svg xmlns="http://www.w3.org/2000/svg" width="1024" height="1024" viewBox="0 0 1024 1024">
  <defs>
    <linearGradient id="g" x1="0" y1="0" x2="1" y2="0">
      <stop offset="0%" stop-color="#6e4f32"/>
      <stop offset="50%" stop-color="#7a5a3a"/>
      <stop offset="100%" stop-color="#8a6441"/>
    </linearGradient>
    <filter id="noise" x="-20%" y="-20%" width="140%" height="140%">
      <feTurbulence type="fractalNoise" baseFrequency="0.9" numOctaves="2" stitchTiles="stitch"/>
      <feColorMatrix type="saturate" values="0.15"/>
      <feBlend mode="multiply" in2="SourceGraphic"/>
      <feGaussianBlur stdDeviation="0.3"/>
      <feComponentTransfer>
        <feFuncA type="linear" slope="0.15"/>
      </feComponentTransfer>
    </filter>
  </defs>
  <rect width="1024" height="1024" fill="url(#g)"/>
  <g filter="url(#noise)">
    <rect width="1024" height="1024" fill="#000" opacity="0.15"/>
  </g>
  <!-- Subtle lines to suggest wood grain -->
  <g opacity="0.25" stroke="#5f452d" stroke-width="2">
    <path d="M0 64 C 128 48, 256 80, 384 64 S 640 80, 768 64 S 896 48, 1024 64" fill="none"/>
    <path d="M0 192 C 128 176, 256 208, 384 192 S 640 208, 768 192 S 896 176, 1024 192" fill="none"/>
    <path d="M0 320 C 128 304, 256 336, 384 320 S 640 336, 768 320 S 896 304, 1024 320" fill="none"/>
    <path d="M0 448 C 128 432, 256 464, 384 448 S 640 464, 768 448 S 896 432, 1024 448" fill="none"/>
    <path d="M0 576 C 128 560, 256 592, 384 576 S 640 592, 768 576 S 896 560, 1024 576" fill="none"/>
    <path d="M0 704 C 128 688, 256 720, 384 704 S 640 720, 768 704 S 896 688, 1024 704" fill="none"/>
    <path d="M0 832 C 128 816, 256 848, 384 832 S 640 848, 768 832 S 896 816, 1024 832" fill="none"/>
    <path d="M0 960 C 128 944, 256 976, 384 960 S 640 976, 768 960 S 896 944, 1024 960" fill="none"/>
  </g>
</svg>
